<?xml version="1.0" standalone="no"?>
<!DOCTYPE svg PUBLIC "-//W3C//DTD SVG 1.1//EN" "http://www.w3.org/Graphics/SVG/1.1/DTD/svg11.dtd" >
<!--
2013-9-30: Created.
-->
<svg>
<metadata>
Created by iconfont
</metadata>
<defs>

<font id="iconfont" horiz-adv-x="1024" >
  <font-face
    font-family="iconfont"
    font-weight="500"
    font-stretch="normal"
    units-per-em="1024"
    ascent="896"
    descent="-128"
  />
    <missing-glyph />
    
    <glyph glyph-name="x" unicode="x" horiz-adv-x="1001"
d="M281 543q-27 -1 -53 -1h-83q-18 0 -36.5 -6t-32.5 -18.5t-23 -32t-9 -45.5v-76h912v41q0 16 -0.5 30t-0.5 18q0 13 -5 29t-17 29.5t-31.5 22.5t-49.5 9h-133v-97h-438v97zM955 310v-52q0 -23 0.5 -52t0.5 -58t-10.5 -47.5t-26 -30t-33 -16t-31.5 -4.5q-14 -1 -29.5 -0.5
t-29.5 0.5h-32l-45 128h-439l-44 -128h-29h-34q-20 0 -45 1q-25 0 -41 9.5t-25.5 23t-13.5 29.5t-4 30v167h911zM163 247q-12 0 -21 -8.5t-9 -21.5t9 -21.5t21 -8.5q13 0 22 8.5t9 21.5t-9 21.5t-22 8.5zM316 123q-8 -26 -14 -48q-5 -19 -10.5 -37t-7.5 -25t-3 -15t1 -14.5
t9.5 -10.5t21.5 -4h37h67h81h80h64h36q23 0 34 12t2 38q-5 13 -9.5 30.5t-9.5 34.5q-5 19 -11 39h-368zM336 498v228q0 11 2.5 23t10 21.5t20.5 15.5t34 6h188q31 0 51.5 -14.5t20.5 -52.5v-227h-327z" />
    

    
    <glyph glyph-name="qiche" unicode="&#58918;" d="M911.140583 416.877941l-19.11229 0c-4.720511 0-9.04398 1.322112-13.313214 2.687202l-0.240477-414.300864c0-24.545022-19.893072-44.438095-44.440142-44.438095l-29.503964 0-0.303922-58.216913c0-24.539906-19.898189-44.440142-44.440142-44.440142L721.619158-141.830871c-24.539906 0-44.438095 19.900236-44.438095 44.440142l0.379647 58.216913L348.681354-39.173816l-0.303922-58.216913c0-24.539906-19.898189-44.440142-44.440142-44.440142l-38.167275 0c-24.539906 0-44.438095 19.900236-44.438095 44.440142l0.379647 58.216913-32.093952 0c-24.547069 0-44.440142 19.893072-44.440142 44.438095l0.303922 414.220023c-4.155646-1.286296-8.329712-2.606361-12.907984-2.606361l-19.11536 0c-24.541953 0-44.438095 8.788154-44.438095 33.330106l0.432859 77.246315c0 35.598776 10.818393 64.416102 44.802392 66.301032 11.472286-0.615007 22.13616-4.042059 31.346939-9.737782l0.007163 12.097526c0 36.817534 29.840632 68.919672 66.658166 80.541361 0 0 76.878948 64.575738 298.849412 64.575738 222.370577 0 301.042357-64.575738 301.042357-64.575738 36.118616-11.599176 66.658166-43.723827 66.658166-80.541361l-0.007163-12.201903c9.251711 5.761214 19.989263 9.223059 31.534204 9.841136 33.983999-1.883907 44.802392-30.701233 44.802392-66.301032l0.432859-77.246315C955.580724 425.665071 935.682535 416.877941 911.140583 416.877941zM739.052203 36.218268c35.049261 0 63.466474 28.414143 63.466474 63.47159 0 35.054377-28.417213 63.466474-63.466474 63.466474-35.057447 0-63.476707-28.412097-63.476707-63.466474C675.575496 64.633435 703.995779 36.218268 739.052203 36.218268zM448.690092 95.314201c0-5.553483 4.505617-10.0591 10.0591-10.0591l106.258069 0c5.556553 0 10.0591 4.505617 10.0591 10.0591l0 30.865985c0 5.556553-4.502547 10.0591-10.0591 10.0591L458.749192 136.239286c-5.553483 0-10.0591-4.502547-10.0591-10.0591L448.690092 95.314201zM283.201014 36.218268c35.052331 0 63.469544 28.414143 63.469544 63.47159 0 35.054377-28.417213 63.466474-63.469544 63.466474-35.057447 0-63.47159-28.412097-63.47159-63.466474C219.729423 64.633435 248.143567 36.218268 283.201014 36.218268zM600.393189 658.003674c0 5.556553-4.505617 10.0591-10.061147 10.0591L433.426457 668.062773c-5.556553 0-10.061147-4.502547-10.061147-10.0591l0-30.865985c0-5.553483 4.505617-10.0591 10.061147-10.0591l156.905586 0c5.556553 0 10.061147 4.505617 10.061147 10.0591L600.393189 658.003674zM737.061872 566.092357 288.420899 566.092357c-36.809347 0-66.655096-29.842679-66.655096-66.655096l-0.432859-219.09395c0-24.545022 19.898189-42.933835 44.438095-42.933835l493.165026 0c24.541953 0 44.438095 19.895119 44.438095 44.440142l0.346901 217.58662C803.720038 536.249679 773.879406 566.092357 737.061872 566.092357zM117.601418 594.114574c-1.217734 0-2.182712-0.293689-3.345188-0.35918-1.200338 0.065492-2.337231 0.35918-3.555989 0.35918L117.601418 594.114574zM913.901463 594.114574c-1.217734 0-2.352581-0.293689-3.555989-0.35918-1.162476 0.065492-2.127454 0.35918-3.345188 0.35918L913.901463 594.114574z"  horiz-adv-x="1024" />

    
    <glyph glyph-name="yumaoqiu" unicode="&#58899;" d="M508.817 153.219l26.399-26.399-124.175-78.085 23.146-23.164-1.683-1.654 488.332 204.653c51.667 17.12 19.979 55.299 1.528 65.513-12.552 6.978-45.407 10.323-65.063 11.743 15.996 22.247-17.714 86.357-22.175 90.835-3.973 3.975-55.541 31.273-82.364 25.645 5.611 26.83-21.688 78.408-25.68 82.381-3.991 3.992-55.542 31.292-82.374 25.663 5.62 26.831-21.681 78.389-25.671 82.399-4.514 4.515-70.387 39.097-91.717 21.401-0.998 19.817-3.813 53.159-10.833 65.837-10.244 18.433-48.423 50.121-65.535-1.547l-204.641-488.325 1.654 1.673 23.064-23.071 78.112 124.157 26.399-26.417-81.267-120.975 16.274-16.275 93.173 109.088 25.754-25.751-96.168-106.104 15.456-15.449 106.122 96.14 25.761-25.75-109.115-93.155 16.239-16.258 121.048 81.251zM449.615 396.716l-38.899-57.889-27.776 27.75 30.968 49.22c7.149 10.952 20.924 15.574 30.762 10.304 9.873-5.305 12.066-18.469 4.945-29.384zM514.391 326.22l-43.322-47.781-27.030 27.047 39.581 46.343c8.722 9.855 22.677 12.175 31.166 5.107 8.488-7.105 8.3-20.844-0.396-30.717zM561.175 188.36l57.926 38.862c10.933 7.14 24.106 4.926 29.374-4.926 5.253-9.873 0.64-23.666-10.304-30.789l-49.214-30.931-27.783 27.785zM527.861 221.665l-27.055 27.048 47.81 43.303c9.855 8.687 23.62 8.867 30.707 0.379 7.057-8.507 4.755-22.445-5.152-31.183l-46.31-39.547zM108.126-114.249c51.424-51.434 136.234-49.994 189.439 3.219 0.225 0.197 0.423 0.466 0.666 0.718l0.017-0.017 80.368 80.349-186.219 186.203-80.315-80.404c-0.233-0.233-0.502-0.412-0.737-0.647-53.195-53.213-54.634-138.025-3.219-189.421zM120.643-23.199c12.157 12.156 30.157-5 51.863-26.723 21.671-21.672 38.863-39.673 26.706-51.827-12.158-12.158-39.581-4.389-61.269 17.282-21.707 21.687-29.448 49.148-17.3 61.268z"  horiz-adv-x="1024" />

    
    <glyph glyph-name="yingyong_bak-copy" unicode="&#983095;" d="M448 525.6c0-49.28-40.32-89.6-89.6-89.6h-204.8c-49.28 0-89.6 40.32-89.6 89.6v204.8c0 49.28 40.32 89.6 89.6 89.6h204.8c49.28 0 89.6-40.32 89.6-89.6v-204.8zM960 13.6c0-49.28-40.32-89.6-89.6-89.6h-204.8c-49.28 0-89.6 40.32-89.6 89.6v204.8c0 49.28 40.32 89.6 89.6 89.6h204.8c49.28 0 89.6-40.32 89.6-89.6v-204.8zM960 525.6c0-49.28-40.32-89.6-89.6-89.6h-204.8c-49.28 0-89.6 40.32-89.6 89.6v204.8c0 49.28 40.32 89.6 89.6 89.6h204.8c49.28 0 89.6-40.32 89.6-89.6v-204.8zM448 13.6c0-49.28-40.32-89.6-89.6-89.6h-204.8c-49.28 0-89.6 40.32-89.6 89.6v204.8c0 49.28 40.32 89.6 89.6 89.6h204.8c49.28 0 89.6-40.32 89.6-89.6v-204.8z"  horiz-adv-x="1024" />

    
    <glyph glyph-name="yqdz_stxx" unicode="&#58936;" d="M268.103 102.529c-23.834-25.729-23.834-67.385 0-93.097 23.783-25.713 62.4-25.713 86.235 0l164.093 177.194-86.235 93.098-164.093-177.194zM439.589 516.082c9.965 23.302 15.666 49.16 15.682 76.516 0 100.987-75.817 182.854-169.39 182.854-93.542 0.019-169.39-81.848-169.39-182.854 0.034-101.004 75.865-182.889 169.39-182.872 23.529 0 45.924 5.186 66.308 14.554l385.785-416.512c23.833-25.713 62.417-25.695 86.237 0 23.83 25.713 23.815 67.386 0 93.098l-384.621 415.215zM657.764 337.009l62.263 67.24c13.735-6.757 28.435-10.5 43.235-10.5 26.692 0 53.368 10.957 73.669 32.871l149.679 161.598-32.439 35.026-131.179-141.621c-4.177-4.509-9.624-6.774-15.121-6.739-5.467 0-10.964 2.21-15.124 6.72l-6.090 6.629c-4.042 4.329-6.255 10.118-6.275 16.308 0 6.173 2.233 11.979 6.275 16.326l131.165 141.601-39.634 42.769-131.158-141.601c-4.162-4.511-9.659-6.757-15.092-6.757-5.497 0-10.976 2.228-15.138 6.74l-6.124 6.629c-4.028 4.346-6.224 10.117-6.241 16.29 0 6.19 2.214 12.016 6.241 16.345l131.178 141.618-32.46 35.009-149.649-161.561c-19.587-21.166-30.38-49.417-30.38-79.53 0-13.458 2.485-26.426 6.615-38.679l-64.482-69.631 86.268-93.097z"  horiz-adv-x="1127" />

    
    <glyph glyph-name="shangcheng" unicode="&#58886;" d="M105.779 802.224v-830.129h830.126l0 830.129h-830.126zM901.329 6.672h-760.96v760.961h760.96l0-760.961zM313.286 490.926c0-114.648 92.96-207.543 207.562-207.543 114.608 0 207.496 92.895 207.496 207.543l-0 103.754h34.631v34.59h-103.772v-34.59h34.555v-103.755c0-95.357-77.551-172.954-172.909-172.954-95.387 0-172.985 77.598-172.985 172.954l0 103.755h34.631v34.59h-103.761v-34.59h34.554l0-103.754h-0.001zM313.286 490.926z"  horiz-adv-x="1024" />

    
    <glyph glyph-name="see-icon-m3-coordination-fill" unicode="&#58937;" d="M506.312 642.844c0 67.508-25.316 130.797-71.728 177.209-50.631 50.589-109.701 75.947-181.428 75.947-67.508 0-130.797-25.358-177.209-75.947-50.631-46.454-75.947-109.743-75.947-177.209 0-71.728 25.316-130.839 75.947-181.428 37.973-37.973 84.385-63.289 135.017-71.728v-139.236c-25.316-8.439-50.631-21.096-71.728-42.193-33.754-37.973-54.85-84.385-54.85-135.017 0-54.85 21.096-97.043 54.85-135.017 37.973-37.973 84.385-54.85 135.017-54.85 54.85 0 97.043 16.835 135.017 54.85 37.973 37.973 54.85 80.166 54.85 135.017 0 12.658 0 29.535-4.219 42.193l308.007 185.606c25.316-25.316 59.070-37.931 97.043-37.931 42.193 0 75.947 12.658 105.482 42.193 29.535 29.535 42.193 63.289 42.193 105.482 0 37.931-12.658 75.947-42.193 105.482-29.535 25.316-63.289 42.193-105.482 42.193-37.973 0-75.947-16.877-105.482-42.193 0-4.261-4.219-8.439-8.439-12.658l-244.717 101.22c0 12.7 0 25.358 0 38.016v0zM476.777 520.485l244.717-92.824c-4.219-8.396-4.219-12.658-4.219-16.835 0-16.877 4.219-29.535 8.439-42.193l-308.007-173.032c-4.219 4.261-8.439 8.439-8.439 12.7-33.754 29.493-67.508 46.412-113.92 50.589v130.797c54.85 8.439 97.043 33.754 139.236 71.728 16.877 21.096 33.754 37.973 42.193 59.070v0z"  horiz-adv-x="1024" />

    
    <glyph glyph-name="caidanshouqi2" unicode="&#59050;" d="M143.661 600.169l779.316-0.534c23.287 0 42.159 18.872 42.188 42.159s-18.872 42.188-42.159 42.216l-779.316 0.534c-23.287 0-42.159-18.872-42.188-42.159s18.872-42.188 42.159-42.216zM923.005 430.35l-779.316 0.563c-23.287 0-42.159-18.872-42.188-42.159s18.872-42.188 42.159-42.216l779.316-0.563c23.287 0 42.159 18.872 42.188 42.159s-18.872 42.188-42.159 42.216zM923.005 167.831l-779.316 0.563c-23.287 0-42.159-18.872-42.188-42.159s18.872-42.188 42.159-42.216l779.316-0.563c23.287 0 42.159 18.872 42.188 42.159s-18.872 42.188-42.159 42.216z"  horiz-adv-x="1024" />

    
    <glyph glyph-name="qianbao" unicode="&#58993;" d="M1277.82216-127.978701H143.364686A143.535079 143.535079 0 0 0 0 15.364686V752.614015A143.535079 143.535079 0 0 0 143.364686 895.936103h1134.457474a143.535079 143.535079 0 0 0 143.385985-143.385985v-368.006989a29.073361 29.073361 0 0 0-29.11596-29.073362c-16.08087 0-20.362003 11.309857-20.362002 27.369428l1.299249 373.587371c0 46.98596-48.242611 101.171038-95.228571 101.171038l-1143.317927-4.259833c-46.98596 0-89.243505-55.250036-89.243506-102.235997V16.983422c0-46.964661 52.395948-98.679036 99.403208-98.679035l1130.666223 0.702872c47.007259 0 97.720573 41.788964 97.720573 88.753625V112.829669c0 16.08087 3.003182 28.157497 19.169249 28.157497a29.052062 29.052062 0 0 0 29.073362-29.073361v-96.549119a143.535079 143.535079 0 0 0-143.385985-143.343387zM39.595149 682.582357h1338.716476v-39.041371H39.595149V682.582357zM1390.153961 282.818312c14.05745 0 25.452503-13.461073 25.452504-30.053123v-8.519666c0-16.613349-11.395054-30.053123-25.452504-30.053123s-25.452503 13.461073-25.452503 30.053123v8.519666c0 16.613349 11.395054 30.053123 25.452503 30.053123zM144.685234 176.727167l29.456747 0 0-117.145413-29.456747 0 0 117.145413ZM201.830896 176.727167l29.456747 0 0-117.145413-29.456747 0 0 117.145413ZM258.976558 176.727167l29.456747 0 0-117.145413-29.456747 0 0 117.145413Z"  horiz-adv-x="1421" />

    
    <glyph glyph-name="pingpangqiu" unicode="&#58922;" d="M932.770909 398.894545c11.170909 126.603636-31.650909 251.345455-122.88 342.574546C729.832727 821.527273 621.847273 866.210909 508.276364 866.210909S286.72 821.527273 206.661818 741.469091c-40.96-40.96-70.749091-87.505455-93.090909-139.636364-3.723636-3.723636-5.585455-9.309091-5.585454-14.894545-16.756364-46.545455-26.065455-96.814545-26.065455-147.083637 0-93.090909 29.789091-180.596364 83.781818-253.207272l-132.189091-132.189091c-14.894545-16.756364-24.203636-37.236364-24.203636-59.578182 0-22.341818 9.309091-44.683636 24.203636-59.578182 16.756364-16.756364 39.098182-24.203636 59.578182-24.203636s42.821818 7.447273 57.716364 27.927273l135.912727 135.912727c65.163636-40.96 141.498182-61.44 221.556364-61.44 113.570909 0 219.694545 44.683636 301.614545 124.741818 5.585455 5.585455 11.170909 11.170909 14.894546 16.756364 16.756364-7.447273 35.374545-13.032727 55.854545-13.032728 74.472727 0 134.050909 59.578182 134.050909 134.050909 0 53.992727-33.512727 102.4-81.92 122.88zM124.741818-34.909091c-18.618182-18.618182-46.545455-18.618182-65.163636 0-7.447273 7.447273-13.032727 18.618182-13.032727 31.650909 0 11.170909 3.723636 22.341818 13.032727 31.650909l128.465454 128.465455c5.585455-7.447273 11.170909-13.032727 18.618182-18.618182 14.894545-14.894545 31.650909-29.789091 50.269091-40.96L124.741818-34.909091z m107.985455 199.214546c-72.610909 74.472727-113.570909 171.287273-113.570909 275.54909 0 39.098182 5.585455 76.334545 16.756363 113.57091l485.934546-485.934546c-132.189091-40.96-282.996364-9.309091-389.12 96.814546z m551.098182 0c-37.236364-37.236364-78.196364-63.301818-122.88-83.781819L150.807273 590.661818c18.618182 44.683636 46.545455 87.505455 81.92 124.741818 72.610909 74.472727 171.287273 111.709091 275.549091 111.709091 104.261818 0 201.076364-39.098182 275.549091-113.570909 81.92-81.92 121.018182-191.767273 111.70909-307.2-5.585455 0-9.309091 1.861818-14.894545 1.861818-74.472727 0-134.050909-61.44-134.050909-134.050909 0-39.098182 18.618182-74.472727 46.545454-98.676363-3.723636-3.723636-5.585455-7.447273-9.30909-11.170909z m96.814545 14.894545c-53.992727 0-96.814545 40.96-96.814545 94.952727 0 53.992727 44.683636 96.814545 96.814545 96.814546 9.309091 0 18.618182-1.861818 26.065455-3.723637 40.96-11.170909 70.749091-50.269091 70.74909-93.090909 0-52.130909-42.821818-94.952727-96.814545-94.952727z"  horiz-adv-x="1024" />

    
    <glyph glyph-name="taiqiu" unicode="&#58916;" d="M371.906 322.285c-29.478 13.717-44.202 33.616-44.202 59.672 0 18.197 6.926 33.011 20.749 44.443 13.825 11.437 31.49 17.158 52.972 17.158 19.694 0 35.912-5.376 48.693-16.118 12.754-10.74 19.118-24.627 19.118-41.646 0-27.451-15.358-48.573-46.117-63.355v-0.632c36.079-12.987 54.114-35.116 54.114-66.396 0-20.531-7.405-36.883-22.272-49.072-14.836-12.17-35.56-18.271-62.15-18.271-21.805 0-39.57 6.01-53.282 18.04-13.74 12.02-20.595 27.604-20.595 46.756 0 31.49 17.64 54.424 52.973 68.773v0.648z m24.254-14.85c-30.519-12.34-45.793-29.993-45.793-52.974 0-11.918 4.463-21.707 13.401-29.365 8.925-7.666 20.581-11.488 34.941-11.488 13.936 0 25.283 3.802 33.997 11.404 8.727 7.613 13.106 17.11 13.106 28.49-0.001 23.94-16.57 41.911-49.652 53.932z m41.5 74.698c0 11.051-3.45 19.779-10.376 26.156-6.911 6.385-16.273 9.58-28.098 9.58-11.05 0-20.468-3.328-28.238-9.966-7.757-6.658-11.642-15.14-11.642-25.45 0-20.654 12.909-36.343 38.782-47.083 26.382 10.945 39.572 26.54 39.572 46.763zM735.407 769.75c-0.365 0.225-0.76 0.436-1.125 0.633a442.22 442.22 0 0 1-56.507 27.684c-1.309 0.52-2.619 1.027-3.928 1.533-9.418 3.717-19.005 7.201-28.733 10.262-0.084 0.05-0.168 0.065-0.237 0.1-9.615 3.034-19.428 5.658-29.324 8.039-2.025 0.47-4.068 0.948-6.11 1.414-9.584 2.161-19.256 4.082-29.04 5.616-0.324 0.064-0.619 0.127-0.943 0.176-9.954 1.535-20.033 2.646-30.182 3.519-2.45 0.19-4.872 0.366-7.335 0.535-10.206 0.697-20.495 1.175-30.897 1.175-11.433 0-22.693-0.563-33.898-1.407-2.128-0.133-4.253-0.283-6.363-0.471a470.74 470.74 0 0 1-32.083-4.04c-1.858-0.316-3.714-0.675-5.573-1.021-10.799-1.894-21.483-4.063-31.97-6.772-0.169-0.007-0.339-0.063-0.508-0.077-10.84-2.772-21.48-6.053-31.997-9.594-1.478-0.507-2.985-0.992-4.49-1.513-10.418-3.64-20.665-7.617-30.717-12.009-0.704-0.323-1.436-0.655-2.154-0.979a443.205 443.205 0 0 1-60.941-32.841c-0.169-0.113-0.338-0.21-0.492-0.316C147.036 680.086 65.642 542.12 65.642 385.034c0-245.979 199.432-445.346 445.404-445.346 245.984 0 445.359 199.366 445.359 445.346 0 164.147-88.84 307.453-220.998 384.716zM414.898 90.363c-128.02 0-231.795 103.769-231.795 231.78 0 128.013 103.776 231.79 231.795 231.79 128.001 0 231.782-103.777 231.782-231.79 0-128.011-103.78-231.78-231.782-231.78z m289.06 455.165c-50.65 44.16-70.202 104.573-43.752 134.98 26.495 30.391 89.01 19.201 139.674-24.925 50.623-44.18 70.189-104.586 43.737-134.964-26.491-30.415-89.008-19.244-139.659 24.909z"  horiz-adv-x="1024" />

    
    <glyph glyph-name="huodong" unicode="&#59152;" d="M503.475 312.627c-31.795 0-63.565-1.305-94.617-3.814-0.82 0.077-1.613 0.256-2.432 0.256a30.925 30.925 0 0 1 0-61.824l4.172-0.512c30.464 2.534 61.543 2.918 92.877 2.918 257.639 0 437.171-82.688 437.171-156.851 0-74.189-179.558-156.877-437.17-156.877-257.665 0-437.146 82.688-437.146 156.877 0 40.243 50.33 83.02 137.625 113.357v-78.797a34.56 34.56 0 0 1 69.12 0V475.29c29.389 15.385 56.423 28.236 110.823 28.236 57.088 0 83.968-14.182 115.148-30.566 34.304-18.074 73.216-38.554 147.405-38.554 67.328 0 105.063 16.59 137.882 33.562a34.531 34.531 0 0 1 18.688 30.72V821.325a34.509 34.509 0 0 1-50.458 30.643c-27.34-14.182-54.195-25.856-106.112-25.856-57.088 0-84.019 14.182-115.2 30.618C496.921 874.752 458.061 895.232 383.898 895.232c-51.303 0-85.607-9.805-113.332-21.786a34.56 34.56 0 0 1-66.636-12.8v-590.08C76.186 230.093 3.277 165.99 3.277 92.774c0-125.388 215.04-219.878 500.173-219.878s500.172 94.49 500.172 219.878c0.052 125.338-215.04 219.853-500.147 219.853z m-230.4 485.274c29.363 15.36 56.397 28.211 110.771 28.211 57.088 0 83.994-14.182 115.2-30.566 34.279-18.074 73.165-38.554 147.38-38.554 36.53 0 64.41 4.864 87.424 12.058v-248.781c-22.016-9.78-47.181-16.768-87.424-16.768-57.114 0-84.02 14.182-115.2 30.592-34.33 18.048-73.216 38.528-147.38 38.528-49.715 0-83.507-9.14-110.796-20.66V797.902z"  horiz-adv-x="1024" />

    
    <glyph glyph-name="lanqiu" unicode="&#60019;" d="M588.736 760.96c20.864-58.56 35.456-128.192 42.816-204.352 60.672-2.24 118.016-9.152 171.904-20.736 2.368 15.488 5.888 29.056 9.728 40.512 11.328 34.048 29.824 63.68 53.568 85.76 16.128 14.976 33.92 25.856 52.48 32.192a513.795 513.795 0 0 1-45.184 51.648c-47.04 47.04-101.76 83.904-162.752 109.696C648.64 882.24 582.144 895.808 513.536 896c30.016-33.792 55.232-78.976 75.2-135.04zM953.6 637.568c-32.384-2.624-65.472-35.968-80.448-81.024-3.328-9.984-6.336-22.144-8.064-36.224 55.616-16.448 107.008-38.4 154.112-65.728a505.252 505.252 0 0 1-35.456 128.704 529.91 529.91 0 0 1-27.072 54.72c-0.96-0.192-1.984-0.32-3.072-0.448z m-686.848 45.248c49.024-27.264 83.968-70.016 101.12-123.712a247.214 247.214 0 0 0 4.928-17.92c53.952 7.808 106.24 12.864 156.608 15.104 12.992 0.512 25.856 0.896 38.592 1.024-7.04 68.224-20.224 130.304-38.784 182.4-25.344 71.104-60.288 121.92-100.992 146.88-1.088 0.64-2.048 1.344-3.008 2.112-38.528-6.592-76.16-17.6-112.512-32.96-60.992-25.792-115.712-62.72-162.752-109.696a510.136 510.136 0 0 1-27.136-29.376c55.168-0.064 103.488-11.392 143.936-33.856z m756.544-305.408c-48.192 32.896-100.544 57.856-155.776 76.032 2.368-13.12 6.016-27.008 11.136-41.728 20.992-59.968 62.528-119.232 123.456-176.32C1016 281.088 1023.36 328.512 1024 376.96a4.305 4.305 0 0 0-0.704 0.448zM573.312 479.936c-0.192 4.8-0.384 9.6-0.576 14.336-64.064-0.768-128.896-6.592-193.024-16-0.128-13.44-1.152-27.136-3.136-41.152-6.08-43.2-20.864-86.848-43.84-129.856-48.192-90.048-128.064-169.152-231.36-229.184 14.784-19.776 30.976-38.528 48.64-56.128 47.04-47.04 101.76-83.904 162.752-109.696 43.84-18.56 89.6-30.72 136.64-36.48 84.864 168.064 131.2 393.92 123.904 604.16z m-263.104 51.008c-0.768 3.008-1.6 6.016-2.56 8.96-26.496 83.008-108.544 123.648-225.216 111.424-2.432-0.256-4.8-0.256-7.168 0.064a506.091 506.091 0 0 1-35.008-68.096C22.528 541.312 10.56 497.664 4.544 452.8c106.496 34.496 208.64 60.608 305.664 78.144z m665.536-356.928c-77.632 68.608-130.368 141.632-156.672 216.832-10.24 29.376-15.616 56.448-17.6 80.96-53.504 12.224-108.992 19.072-165.44 21.504 0.128-3.712 0.32-7.424 0.448-11.136 3.648-104.96-5.504-216.704-26.56-323.328-20.672-104.704-51.648-201.024-92.096-286.848 67.072 0.768 132.16 14.272 193.536 40.192 60.992 25.792 115.712 62.72 162.752 109.696 43.712 43.712 78.72 94.208 104.128 150.08-0.896 0.64-1.728 1.28-2.496 2.048zM276.992 337.088c23.488 43.904 36.736 88.96 39.04 130.688-108.224-19.904-212.864-48.896-306.56-79.872a32.668 32.668 0 0 0-9.472-1.6V384c0-69.12 13.568-136.192 40.256-199.296 7.808-18.432 16.64-36.352 26.496-53.632 119.168 68.48 180.096 149.632 210.24 206.016z m0 0"  horiz-adv-x="1024" />

    
    <glyph glyph-name="plus" unicode="&#58625;" d="M914.817322 358.68852100000004L109.182678 358.68852100000004c-13.482059 0-24.413016 11.06501-24.413016 24.559349s10.930957 24.559349 24.413016 24.559349l805.634644 0c13.482059 0 24.413016-11.06501 24.413016-24.559349S928.299381 358.68852100000004 914.817322 358.68852100000004zM536.440645 786.064168l0-805.634644c0-13.482059-11.06501-24.413016-24.559349-24.413016s-24.559349 10.930957-24.559349 24.413016l0 805.634644c0 13.482059 11.06501 24.413016 24.559349 24.413016S536.440645 799.546228 536.440645 786.064168z"  horiz-adv-x="1024" />

    
    <glyph glyph-name="lanqiu1" unicode="&#58939;" d="M519.910563 896a511.992509 511.992509 0 1 1 511.935546-511.992509A512.676077 512.676077 0 0 1 519.910563 896zM1030.02326 476.915789c0.56964 2.734272 0.85446 4.386229 0.911424 4.614084l-1.879812 0.284821C982.629205 717.417833 771.748445 896 519.340923 896 232.982852 896 0.000057 666.264153 0.000057 384.007491a504.245404 504.245404 0 0 1 14.184038-118.94085l0.56964-1.196244c55.027232-224.38123 260.439447-391.570595 504.815044-391.570595 286.358071 0 519.340866 229.621919 519.340867 511.821617a505.498612 505.498612 0 0 1-8.886386 92.79437z m-8.487637-92.908298A487.782806 487.782806 0 0 0 911.424194 75.148636l-1.253208 0.455712s-10.766198-22.215963-76.787483-32.412521c-70.635371-10.880126-188.72176 30.646637-268.756193 69.666983-49.672615 24.209704-95.07293 46.368703-152.948363 88.237249l61.692021 85.047265a278.041326 278.041326 0 0 1 145.65697-44.204071c6.038185 0 11.734586 0 17.089203 0.797496 60.837561 5.696401 174.822542 49.501723 249.95807 88.23725C947.767232 362.873844 991.173806 396.767429 1010.769425 428.89513a146.397502 146.397502 0 0 1 7.23443 13.329578 489.890474 489.890474 0 0 0 3.531768-58.217217z m-9.000313 93.250082a143.09359 143.09359 0 0 0-16.348671-39.305166c-18.228483-29.56432-59.071677-61.293273-118.143354-91.825982-72.059471-37.197498-185.759632-80.831928-243.748992-86.414401-36.058217-3.531769-96.212211 5.240689-150.897659 40.273554l344.74618 473.883588a494.276703 494.276703 0 0 0 184.44946-296.611593zM814.58538 784.065723l-345.201892-474.339299c-52.463852 40.615338-80.945856 120.023166-86.243509 135.973088-10.025666 30.133961-9.740845 118.826922-5.297653 188.550869 3.930517 61.065417 21.589359 146.739286 39.305166 191.057284 17.089203 42.21033 49.387795 49.558687 50.754932 49.843508v1.025352A513.359645 513.359645 0 0 0 519.340923 878.910797 504.587188 504.587188 0 0 0 814.58538 784.065723zM427.230121 870.309232a108.231616 108.231616 0 0 1-25.633803-38.735526c-18.285447-45.571207-36.456965-133.751492-40.444447-196.297973-3.531769-54.970268-6.266041-157.904232 6.095149-195.044766 5.696401-17.089203 35.773397-100.712367 92.395622-144.403762l-61.919877-84.591552a1339.679554 1339.679554 0 0 0-104.244136 88.009393C158.758749 423.768369 114.782534 531.999985 102.136524 572.729251 84.933394 628.26916 108.231673 665.751477 108.687385 666.093261l-1.196244 0.797496A503.90362 503.90362 0 0 0 426.888337 870.309232zM79.066101 621.832227a149.986235 149.986235 0 0 1 6.778717-54.172773C98.889576 525.733944 144.118999 414.027523 281.857971 286.485108a1342.698647 1342.698647 0 0 1 105.896092-89.205637l-50.584039-69.496091a721.392205 721.392205 0 0 1-75.87606 49.102976c-29.108608 15.665102-75.933023 27.342724-117.288893 37.596245-29.963069 7.462285-58.217217 14.468858-72.970895 21.475431-26.830048 12.702974-37.539282 28.482004-40.50141 33.836622a487.83977 487.83977 0 0 0 48.476371 351.923645z m-38.50767-387.355259a133.409708 133.409708 0 0 1 23.241316-13.956182c16.291706-7.690141 44.033179-14.582786 76.160879-22.785603 40.387482-10.025666 86.129581-21.418467 113.301413-36.058218a706.752455 706.752455 0 0 0 74.053211-47.906731l-97.693274-133.637564a497.352759 497.352759 0 0 0-189.120509 254.51519z m203.247583-263.857288l96.838814 133.352745a578.355579 578.355579 0 0 0 79.00908-69.154307 516.378738 516.378738 0 0 0 54.343664-76.901412 442.553383 442.553383 0 0 1 30.874493-46.19781 145.827862 145.827862 0 0 1 23.29828-22.272928h-9.057278a504.701116 504.701116 0 0 0-275.307053 81.173712z m312.219731-79.749612a174.65165 174.65165 0 0 0-37.65321 31.501097 431.787185 431.787185 0 0 0-29.621284 44.431927A530.562776 530.562776 0 0 1 432.926522 46.096992a593.337114 593.337114 0 0 1-81.743352 71.774651l50.58404 69.553054C461.408527 144.075087 508.517762 121.289483 557.335917 97.307636 629.965028 61.876022 734.209164 24.450669 808.888979 24.450669a178.240383 178.240383 0 0 1 26.943976 1.879812 257.876067 257.876067 0 0 1 39.305166 8.943349 504.131476 504.131476 0 0 0-319.112376-144.631618z"  horiz-adv-x="1038" />

    
    <glyph glyph-name="anquan" unicode="&#58887;" d="M326.4 723.2C396.8 768 486.4 838.4 486.4 838.4s115.2-115.2 160-115.2h179.2l19.2-294.4-44.8-262.4-192-185.6-115.2-51.2-211.2 128S140.8 192 140.8 364.8s12.8 371.2 12.8 371.2l172.8-12.8zM838.4 230.4c-38.4-204.8-352-345.6-352-345.6s-320 140.8-352 345.6c-38.4 198.4-12.8 531.2-12.8 531.2S326.4 678.4 486.4 883.2c160-204.8 364.8-121.6 364.8-121.6s25.6-332.8-12.8-531.2z m-38.4 467.2S620.8 627.2 486.4 800C352 633.6 172.8 697.6 172.8 697.6s-19.2-275.2 12.8-448c32-166.4 300.8-288 300.8-288s268.8 115.2 300.8 288 12.8 448 12.8 448zM473.6 262.4c-19.2-19.2-44.8-19.2-57.6 0L320 358.4c-19.2 19.2-19.2 44.8 0 64 19.2 19.2 44.8 19.2 57.6 0L448 352l166.4 166.4c19.2 19.2 44.8 19.2 57.6 0 19.2-19.2 19.2-44.8 0-57.6L473.6 262.4z m0 0"  horiz-adv-x="1024" />

    
    <glyph glyph-name="fuli" unicode="&#59060;" d="M428.338776 638.629282H42.677746a42.661618 42.661618 0 0 1-42.661618-43.728159v-33.276062a42.661618 42.661618 0 0 1 42.661618-43.728159h385.66103a42.661618 42.661618 0 0 1 42.661619 43.728159v33.062754a42.661618 42.661618 0 0 1-42.661619 43.941467zM938.571732 638.629282H552.910702a42.661618 42.661618 0 0 1-42.661618-43.728159v-33.276062a42.661618 42.661618 0 0 1 42.661618-43.728159H938.571732a42.661618 42.661618 0 0 1 42.661619 43.728159v33.062754a42.661618 42.661618 0 0 1-42.661619 43.941467zM428.338776 477.368365H101.55078a45.221315 45.221315 0 0 1-42.661619-47.354397v-340.013098a45.221315 45.221315 0 0 1 42.661619-47.354396h326.787996a45.221315 45.221315 0 0 1 42.661619 47.354396V430.013968a45.221315 45.221315 0 0 1-42.661619 47.354397zM879.698699 477.368365H552.910702a45.221315 45.221315 0 0 1-42.661618-47.354397v-340.013098a45.221315 45.221315 0 0 1 42.661618-47.354396h326.787997a45.221315 45.221315 0 0 1 42.661618 47.354396V430.013968a45.221315 45.221315 0 0 1-42.661618 47.354397zM550.351005 663.373021a190.05751 190.05751 0 0 1 49.487477-6.185935 250.637008 250.637008 0 0 1 70.604979 10.452097 229.519507 229.519507 0 0 1 103.881041 61.646038 100.894727 100.894727 0 0 1 29.649824 95.562025c-17.064647 61.006114-102.387884 87.669626-194.323671 60.579499a229.306199 229.306199 0 0 1-104.094349-61.859347 147.6092 147.6092 0 0 1-14.931567-19.411037A212.028243 212.028243 0 0 1 371.598824 885.213436 224.613421 224.613421 0 0 1 251.719676 889.479598a97.481798 97.481798 0 0 1-74.444524-63.992427A100.894727 100.894727 0 0 1 206.924977 729.925146a229.519507 229.519507 0 0 1 103.881041-61.646039 250.850316 250.850316 0 0 1 70.604978-10.665405 137.157103 137.157103 0 0 1 109.000435 42.661619 111.560132 111.560132 0 0 1 59.939574-36.9023z m-85.323237 76.790913c-8.745632-31.569598-69.111822-51.833866-141.636573-30.503057a186.857888 186.857888 0 0 0-85.323236 49.487477 61.859347 61.859347 0 0 0-19.837653 53.327023c5.972627 21.330809 30.289749 30.716365 44.368083 34.555911a147.6092 147.6092 0 0 0 38.608765 4.906086 210.10847 210.10847 0 0 0 58.659725-8.95894c72.524751-21.117501 113.266597-71.244903 104.520965-102.8145z m72.311443 53.327023a186.857888 186.857888 0 0 0 85.323237 49.487477 208.188698 208.188698 0 0 0 58.446417 8.745632c44.368083 0 77.004221-16.851339 83.403464-39.248689a61.859347 61.859347 0 0 0-19.837652-53.327023 186.857888 186.857888 0 0 0-85.323237-49.487477 183.231651 183.231651 0 0 0-97.26849-4.052854c-14.078334 3.839546-38.395457 13.225102-44.368083 34.555911a61.859347 61.859347 0 0 0 18.98442 53.540331z"  horiz-adv-x="1228" />

    
    <glyph glyph-name="geren11" unicode="&#58626;" d="M959.36-3.6266666699999632c-15.36 181.76-139.52 332.16-307.84 386.56 70.4 45.44 117.12 124.16 117.12 214.4 0 141.44-115.2 256-256.64 256C369.92 853.33333333 255.36 738.77333333 255.36 597.33333333c0-90.24 46.72-168.96 117.12-214.4-168.32-54.4-292.48-204.8-307.84-386.56 0-3.2-0.64-5.76 0-10.24C65.92-29.866666669999972 80-42.66666667000004 96-42.66666667000004 113.92-42.66666667000004 128-27.946666670000013 128-10.66666667000004 144.64 187.09333332999995 310.4 341.33333332999996 512 341.33333332999996s366.72-154.24 384-352c0-17.28 14.08-32 32-32 16 0 30.08 12.8 31.36 28.8C960-9.386666669999954 959.36-6.826666670000009 959.36-3.6266666699999632zM319.36 597.33333333c0 106.24 86.4 192 192.64 192 106.24 0 192.64-85.76 192.64-192 0-106.24-86.4-192-192.64-192C405.76 405.33333333 319.36 491.09333333 319.36 597.33333333z"  horiz-adv-x="1024" />

    
    <glyph glyph-name="fanhui" unicode="&#58900;" d="M256 310.954667L0 569.344l256 256 73.045333-73.045333-182.613333-182.954667L329.045333 384 256 310.954667z m0 0M1024-57.344h-313.344v104.448h208.896V517.12H135.850667V621.568H1024v-678.912z m0 0M396.970667 47.104h208.896v-104.448h-208.896z"  horiz-adv-x="1024" />

    
    <glyph glyph-name="yemian" unicode="&#59460;" d="M569.8048 874.7264a82.0736 82.0736 0 0 1-110.2848 0L13.568 451.2768a41.1392 41.1392 0 0 1 55.0912-61.1072l7.0912 6.7328V-45.056a82.2784 82.2784 0 0 1 82.2784-82.3808h239.4368v247.7056a57.9328 57.9328 0 0 0 57.9584 58.0096h112.6656a57.9328 57.9328 0 0 0 57.9584-58.0096v-247.7056h245.12a82.2784 82.2784 0 0 1 82.304 82.3808V391.5008c18.2784-16.5376 44.2112-15.2832 59.4176 1.664a41.1392 41.1392 0 0 1-2.9696 58.112L569.8048 874.7008z"  horiz-adv-x="1024" />

    


  </font>
</defs>
</svg>
